HIERARCHY
ROOT joint_Root
{
	OFFSET 0.0 0.0 0.0
	CHANNELS 6 Xposition Yposition Zposition Zrotation Xrotation Yrotation 
	JOINT Hips
	{
		OFFSET 4.5925 91.4895 -427.239
		CHANNELS 6 Xposition Yposition Zposition Zrotation Xrotation Yrotation 
		JOINT Spine
		{
			OFFSET 15.7357 0.0 0.0
			CHANNELS 6 Xposition Yposition Zposition Zrotation Xrotation Yrotation 
			JOINT Chest
			{
				OFFSET 8.98455 -0.406207 0.0
				CHANNELS 6 Xposition Yposition Zposition Zrotation Xrotation Yrotation 
				JOINT Neck
				{
					OFFSET 16.3773 0.0 0.0
					CHANNELS 6 Xposition Yposition Zposition Zrotation Xrotation Yrotation 
					JOINT Head
					{
						OFFSET 6.45672 0.0 0.0
						CHANNELS 6 Xposition Yposition Zposition Zrotation Xrotation Yrotation 
						End Site
						{
							OFFSET 0.0 0.0 0.0
						}
					}
				}
				JOINT Shoulder_L
				{
					OFFSET 12.9942 -0.242716 4.98039
					CHANNELS 6 Xposition Yposition Zposition Zrotation Xrotation Yrotation 
					JOINT UpperArm_L
					{
						OFFSET 5.34809 0.0 0.0
						CHANNELS 6 Xposition Yposition Zposition Zrotation Xrotation Yrotation 
						JOINT LowerArm_L
						{
							OFFSET 24.3286 1.87007e-05 0.0
							CHANNELS 6 Xposition Yposition Zposition Zrotation Xrotation Yrotation 
							JOINT Hand_L
							{
								OFFSET 22.2916 0.0 0.0
								CHANNELS 6 Xposition Yposition Zposition Zrotation Xrotation Yrotation 
								End Site
								{
									OFFSET 0.0 0.0 0.0
								}
							}
						}
					}
				}
				JOINT Shoulder_R
				{
					OFFSET 12.9945 -0.242716 -4.98039
					CHANNELS 6 Xposition Yposition Zposition Zrotation Xrotation Yrotation 
					JOINT UpperArm_R
					{
						OFFSET -5.34813 0.0 0.0
						CHANNELS 6 Xposition Yposition Zposition Zrotation Xrotation Yrotation 
						JOINT LowerArm_R
						{
							OFFSET -24.3289 0.000322201 0.0
							CHANNELS 6 Xposition Yposition Zposition Zrotation Xrotation Yrotation 
							JOINT Hand_R
							{
								OFFSET -22.2915 -0.000108084 0.0
								CHANNELS 6 Xposition Yposition Zposition Zrotation Xrotation Yrotation 
								End Site
								{
									OFFSET 0.0 0.0 0.0
								}
							}
						}
					}
				}
			}
		}
		JOINT UpperLeg_L
		{
			OFFSET -2.19248 -6.46944 0.0
			CHANNELS 6 Xposition Yposition Zposition Zrotation Xrotation Yrotation 
			JOINT LowerLeg_L
			{
				OFFSET 39.0811 0.0 -1.23785e-05
				CHANNELS 6 Xposition Yposition Zposition Zrotation Xrotation Yrotation 
				JOINT Foot_L
				{
					OFFSET 40.9854 0.0 -1.26872e-05
					CHANNELS 6 Xposition Yposition Zposition Zrotation Xrotation Yrotation 
					JOINT Toes_L
					{
						OFFSET 11.7543 0.0 0.0
						CHANNELS 6 Xposition Yposition Zposition Zrotation Xrotation Yrotation 
						End Site
						{
							OFFSET 0.0 0.0 0.0
						}
					}
				}
			}
		}
		JOINT UpperLeg_R
		{
			OFFSET -2.19251 6.46944 0.0
			CHANNELS 6 Xposition Yposition Zposition Zrotation Xrotation Yrotation 
			JOINT LowerLeg_R
			{
				OFFSET -39.0811 -0.00228153 -0.0401928
				CHANNELS 6 Xposition Yposition Zposition Zrotation Xrotation Yrotation 
				JOINT Foot_R
				{
					OFFSET -40.9854 0.0 0.0
					CHANNELS 6 Xposition Yposition Zposition Zrotation Xrotation Yrotation 
					JOINT Toes_R
					{
						OFFSET -11.7543 0.0 0.0
						CHANNELS 6 Xposition Yposition Zposition Zrotation Xrotation Yrotation 
						End Site
						{
							OFFSET 0.0 0.0 0.0
						}
					}
				}
			}
		}
	}
}
MOTION
Frames:	4
Frame Time:	0.0333333
0.000000 0.000000 0.000000 0.000000 0.000000 -0.000000 4.140170 86.384700 1.414050 89.417900 -13.153800 9.281410 15.735700 0.000005 -0.000001 102.969000 82.027600 -101.011000 8.984550 -0.406207 -0.000000 7.725260 3.563240 3.672900 16.377300 -0.000001 -0.000001 0.824554 -4.686800 2.553020 6.456720 -0.000001 -0.000000 -1.031710 -7.173260 3.943010 12.994200 -0.242716 4.980390 -91.951900 5.425350 -70.177200 5.348090 -0.000007 -0.000001 -65.833500 20.228300 -8.385530 24.328600 0.000019 0.000005 11.285400 20.269700 -29.940600 22.291600 -0.000001 0.000005 4.365610 5.183650 3.101010 12.994500 -0.242716 -4.980390 88.457300 9.770470 -80.980600 -5.348130 -0.000001 -0.000004 -57.537900 30.180900 -19.868900 -24.328900 0.000322 -0.000009 0.879971 3.146240 -15.669300 -22.291500 -0.000108 -0.000004 19.182400 5.401690 -3.035130 -2.192480 -6.469440 -0.000000 -176.247000 -19.766700 -6.684740 39.081100 -0.000007 -0.000012 -0.407565 0.366322 48.051500 40.985400 -0.000006 -0.000013 1.851510 0.458968 -81.850500 11.754300 -0.000000 0.000003 -0.000310 -0.002672 -16.677000 -2.192510 6.469440 -0.000001 174.025000 6.890760 169.368000 -39.081100 -0.002282 -0.040193 0.029051 -0.022176 49.320300 -40.985400 0.000008 0.000006 4.017050 8.828290 -78.769200 -11.754300 -0.000006 -0.000006 -1.257580 -1.568630 -16.961000
0.000000 0.000000 0.000000 0.000000 0.000000 -0.000000 4.876290 87.980600 1.990730 89.708300 -17.085600 7.799590 15.735700 0.000005 -0.000001 101.405000 83.233800 -98.682400 8.984550 -0.406207 -0.000000 5.447240 2.614730 5.314630 16.377300 -0.000001 -0.000001 3.343710 -3.973080 2.499660 6.456720 -0.000001 -0.000000 0.234087 -5.717750 1.513430 12.994200 -0.242716 4.980390 -91.589700 4.164190 -69.080500 5.348090 -0.000007 -0.000001 -58.344100 12.446400 -10.183200 24.328600 0.000019 0.000005 11.511000 18.320800 -32.953000 22.291600 -0.000001 0.000005 5.756410 5.175510 3.304910 12.994500 -0.242716 -4.980390 88.438300 8.327800 -79.338200 -5.348130 -0.000001 -0.000004 -61.852700 25.698900 -19.196600 -24.328900 0.000322 -0.000009 1.253730 4.404840 -15.923400 -22.291500 -0.000108 -0.000004 20.871100 5.305550 -0.083143 -2.192480 -6.469440 -0.000000 -178.062000 -20.098900 -4.696940 39.081100 -0.000007 -0.000012 -0.336482 0.381034 41.447700 40.985400 -0.000006 -0.000013 0.892975 -3.028140 -79.159600 11.754300 -0.000000 0.000003 -0.000295 -0.002563 -16.673100 -2.192510 6.469440 -0.000001 173.391000 6.018400 170.002000 -39.081100 -0.002282 -0.040193 0.013965 -0.011151 43.811000 -40.985400 0.000008 0.000006 4.080810 11.693100 -75.401800 -11.754300 -0.000006 -0.000006 -1.164750 -1.432320 -17.513300
0.000000 0.000000 0.000000 0.000000 0.000000 -0.000000 5.292470 89.388900 2.282160 89.760100 -19.573800 6.152220 15.735700 0.000005 -0.000001 101.023000 84.455400 -97.676400 8.984550 -0.406207 -0.000000 3.071150 1.981290 6.634180 16.377300 -0.000001 -0.000001 6.183860 -3.868710 2.742960 6.456720 -0.000001 -0.000000 0.984481 -5.770280 -0.272141 12.994200 -0.242716 4.980390 -91.047900 2.597660 -68.023900 5.348090 -0.000007 -0.000001 -49.833800 -2.007200 -16.360800 24.328600 0.000019 0.000005 7.001180 8.730090 -39.043300 22.291600 -0.000001 0.000005 15.596000 5.200040 2.775150 12.994500 -0.242716 -4.980390 88.393200 7.557070 -77.959300 -5.348130 -0.000001 -0.000004 -63.635400 23.834900 -16.331000 -24.328900 0.000322 -0.000009 0.407095 1.145700 -19.770200 -22.291500 -0.000108 -0.000004 18.398600 5.332390 -0.892930 -2.192480 -6.469440 -0.000000 -179.234000 -20.371900 -3.119830 39.081100 -0.000007 -0.000012 -0.249622 0.356831 34.975200 40.985400 -0.000006 -0.000013 0.603461 -4.922410 -76.227600 11.754300 -0.000000 0.000003 -0.000201 -0.001856 -16.647600 -2.192510 6.469440 -0.000001 173.164000 6.391980 170.667000 -39.081100 -0.002282 -0.040193 0.006208 -0.003706 38.286300 -40.985400 0.000008 0.000006 3.953060 14.134800 -72.101600 -11.754300 -0.000006 -0.000006 -0.874568 -1.062030 -18.097500
0.000000 0.000000 0.000000 0.000000 0.000000 -0.000000 5.344030 90.166200 2.378920 89.426000 -20.500100 5.508210 15.735700 0.000005 -0.000001 99.290700 85.000500 -95.640000 8.984550 -0.406207 -0.000000 2.067370 1.431960 7.268850 16.377300 -0.000001 -0.000001 7.660590 -4.158460 3.571260 6.456720 -0.000001 -0.000000 1.846010 -5.952510 -0.640683 12.994200 -0.242716 4.980390 -90.123800 0.319234 -68.910400 5.348090 -0.000007 -0.000001 -44.046600 -20.593100 -26.428100 24.328600 0.000019 0.000005 3.346430 2.885220 -49.297700 22.291600 -0.000001 0.000005 21.160000 5.293260 0.271259 12.994500 -0.242716 -4.980390 88.226700 8.092980 -77.597100 -5.348130 -0.000001 -0.000004 -61.640100 26.077300 -13.865100 -24.328900 0.000322 -0.000009 -2.131000 -4.714380 -24.319000 -22.291500 -0.000108 -0.000004 15.915000 5.421090 -3.645360 -2.192480 -6.469440 -0.000000 -178.876000 -21.356200 -1.558800 39.081100 -0.000007 -0.000012 -0.180863 0.299447 31.131900 40.985400 -0.000006 -0.000013 0.856352 -4.247580 -74.432900 11.754300 -0.000000 0.000003 -0.000129 -0.001280 -16.626400 -2.192510 6.469440 -0.000001 173.268000 8.191240 172.314000 -39.081100 -0.002282 -0.040193 0.002735 0.000827 34.017800 -40.985400 0.000008 0.000006 4.116740 16.317900 -70.863900 -11.754300 -0.000006 -0.000006 -0.276001 -0.349412 -17.768500
